<svg width="256" height="256" viewBox="0 0 256 256" fill="none" xmlns="http://www.w3.org/2000/svg">
<rect width="256" height="256" fill="white"/>
<path fill-rule="evenodd" clip-rule="evenodd" d="M206.209 15.5C197.846 20.0326 190.193 24.4943 183.248 28.8853V90.914C174.708 85.7811 166.113 80.7034 157.464 75.6809C147.772 69.9706 138.08 64.4031 128.388 58.9783C115.133 66.4017 101.95 73.9678 88.8373 81.6767C75.8674 89.2429 62.755 96.8804 49.5 104.589C49.7851 108.729 49.8563 113.012 49.7138 117.438C49.5713 121.863 49.5 126.36 49.5 130.928C49.6482 131.017 49.7964 131.107 49.9446 131.196V195.245C53.2045 197.228 56.3936 199.14 59.5118 200.982C62.7717 202.823 66.1734 204.735 69.7168 206.718C79.3549 212.101 88.9929 217.625 98.631 223.29C108.411 228.956 118.12 234.693 127.758 240.5C127.967 240.379 128.176 240.257 128.385 240.136C128.386 240.136 128.387 240.137 128.388 240.138C141.358 232.714 154.257 225.219 167.084 217.653C167.16 217.609 167.235 217.565 167.31 217.521C180.207 210.235 193.173 202.809 206.209 195.245V102.823C206.209 88.0921 206.138 73.3612 205.996 58.6303C205.854 43.7578 205.925 29.5935 206.209 16.1374V15.5ZM183.248 181.605V118.758C173.893 113.375 164.609 107.993 155.396 102.61C146.325 97.228 137.112 91.9873 127.758 86.8881C118.403 92.2705 109.261 97.5822 100.332 102.823C91.6623 107.911 82.7924 113.066 73.7221 118.288C74.6625 118.968 75.6389 119.613 76.6513 120.221C78.2191 121.078 79.6443 121.863 80.9271 122.577C90.6189 128.43 100.311 134.14 110.002 139.708C119.837 145.132 129.6 150.771 139.292 156.624C147.701 161.478 156.039 166.261 164.305 170.972C170.541 174.359 176.855 177.904 183.248 181.605ZM72.9059 144.835V181.86C72.909 181.862 72.9122 181.863 72.9154 181.865C73.0205 181.803 73.1256 181.741 73.2306 181.678C82.2098 187.103 91.2602 192.457 100.382 197.739C108.832 202.556 117.341 207.433 125.909 212.37C126.737 212.824 127.566 213.277 128.396 213.729C129.042 213.34 129.688 212.951 130.335 212.562C134.834 209.725 139.387 206.996 143.995 204.377C144.372 204.178 144.748 203.979 145.123 203.778C148.538 201.773 151.962 199.779 155.396 197.795C156.295 197.283 157.195 196.771 158.095 196.259C158.67 195.898 159.244 195.535 159.815 195.169C157.535 193.599 155.255 192.242 152.974 191.1C150.836 189.816 148.627 188.388 146.347 186.818C130.241 177.396 114.064 168.188 97.8165 159.194C89.5129 154.484 81.2094 149.697 72.9059 144.835Z" fill="black"/>
</svg>
